<?xml version="1.0" encoding="UTF-8"?>
<svg width="256" height="256" version="1.1" viewBox="0 0 67.733 67.733" xmlns="http://www.w3.org/2000/svg">
 <g fill="#44739e">
  <path d="m33.867 8.4667c-2.9222 0-5.2917 2.3695-5.2917 5.2917s2.3695 5.2917 5.2917 5.2917 5.2917-2.3695 5.2917-5.2917-2.3695-5.2917-5.2917-5.2917zm0 2.1167c1.7558 0 3.175 1.4192 3.175 3.175s-1.4192 3.175-3.175 3.175-3.175-1.4192-3.175-3.175 1.4192-3.175 3.175-3.175z"/>
  <path d="m33.867 4.2333a2.1167 2.1167 0 0 0-2.1167 2.1167v2.1167a2.1167 2.1167 0 0 0 2.1167 2.1167 2.1167 2.1167 0 0 0 2.1167-2.1167v-2.1167a2.1167 2.1167 0 0 0-2.1167-2.1167z"/>
  <path d="m25.4 25.4c-11.689 0-21.167 9.4777-21.167 21.167s9.4777 21.167 21.167 21.167h16.933c11.689 0 21.167-9.4777 21.167-21.167s-9.4777-21.167-21.167-21.167zm0 4.2333h16.933c9.3512 0 16.933 7.5821 16.933 16.933s-7.5821 16.933-16.933 16.933h-16.933c-9.3512 0-16.933-7.5821-16.933-16.933s7.5821-16.933 16.933-16.933z"/>
  <path d="m33.867 33.867c-7.0134 0-12.7 5.6866-12.7 12.7s5.6866 12.7 12.7 12.7 12.7-5.6866 12.7-12.7-5.6866-12.7-12.7-12.7zm0 4.2333c4.6756 0 8.4667 3.7911 8.4667 8.4667s-3.7911 8.4667-8.4667 8.4667-8.4667-3.7911-8.4667-8.4667 3.7911-8.4667 8.4667-8.4667z"/>
 </g>
</svg>
